<svg xmlns="http://www.w3.org/2000/svg" width="443" height="486" viewBox="0 0 443 486" fill="none">
  <path d="M152.134 40.1362C183.119 -12.673 259.469 -12.673 290.452 40.1362L291.577 42.0541C305.873 66.4166 331.929 81.4612 360.174 81.659L362.4 81.6745C423.627 82.1032 461.801 148.224 431.558 201.462L430.459 203.395C416.508 227.955 416.508 258.045 430.459 282.605L431.558 284.538C461.801 337.777 423.627 403.896 362.4 404.325L360.174 404.34C331.929 404.539 305.873 419.584 291.577 443.945L290.452 445.863C259.469 498.673 183.119 498.673 152.134 445.863L151.009 443.945C136.715 419.584 110.657 404.539 82.4114 404.34L80.1877 404.325C18.9614 403.896 -19.2132 337.777 11.0285 284.538L12.1269 282.605C26.0784 258.045 26.0784 227.955 12.1269 203.395L11.0285 201.462C-19.2132 148.224 18.9614 82.1032 80.1877 81.6745L82.4114 81.659C110.657 81.4612 136.715 66.4166 151.009 42.0541L152.134 40.1362Z" fill="#2BAFFC"/>
</svg>